PathFileType	4	(X/Y/Z)	A:\Common\BMMB\PROJECTS\STRATO\DataSTRATO\DataSTRATO\0021~016 ID\0021~aa~ID 016\W8_STRATO_ID_16.trc
DataRate	CameraRate	NumFrames	NumMarkers	Units	OrigDataRate	OrigDataStartFrame	OrigNumFrames
250.00	250.00	16	18	mm	250.00	490	2481
Frame#	Time	r.should			l.should			c7			r.asis			l.asis			sacrum			r.bar1			l.bar1			r.knee1			l.knee1			r.bar2			r.mall			l.bar2			l.mall			r.met			r.heel			l.heel			l.met			
		X1	Y1	Z1	X2	Y2	Z2	X3	Y3	Z3	X4	Y4	Z4	X5	Y5	Z5	X6	Y6	Z6	X7	Y7	Z7	X8	Y8	Z8	X9	Y9	Z9	X10	Y10	Z10	X11	Y11	Z11	X12	Y12	Z12	X13	Y13	Z13	X14	Y14	Z14	X15	Y15	Z15	X16	Y16	Z16	X17	Y17	Z17	X18	Y18	Z18	

1653	6.612000	374.707550	1323.574781	-216.059864	79.021700	1341.312408	-227.015257	236.363381	1393.728018	-141.008139	334.908187	885.644794	-335.813701	94.369970	874.883056	-318.535030	230.446920	948.909342	-98.388679	427.411556	813.829064	-251.418501	30.569192	775.471628	-243.697494	360.626876	460.397393	-217.826813	82.392672	466.279060	-335.487694	344.128072	409.987837	-227.083564	301.508278	67.791879	-209.724247	79.419851	432.624012	-298.640579	119.419915	197.835624	-29.471897	291.760206	36.832049	-354.042232	248.627722	39.541773	-158.273816	174.099267	223.881006	18.568004	133.256704	75.931005	-99.246085	
1654	6.616000	374.887824	1323.927879	-220.380485	79.086103	1341.105461	-230.863899	236.583591	1393.896818	-145.058870	335.320711	885.732234	-339.412868	94.651856	874.980867	-322.307140	230.351090	948.987246	-102.167711	427.409381	813.724875	-255.312204	30.578697	775.825560	-247.827515	360.381037	460.352123	-220.786914	82.216894	467.442811	-342.543006	343.872607	409.875661	-229.706645	301.424593	67.824632	-209.899679	79.437807	433.560610	-306.616038	119.614157	195.335358	-39.472993	291.408449	36.974963	-354.592144	248.579919	39.589126	-158.357874	173.515350	221.136123	10.287711	133.516997	75.312302	-113.017023	
1655	6.620000	375.113308	1324.247122	-224.656314	79.176903	1340.903282	-234.673157	236.765668	1394.050956	-149.172872	335.710168	885.873914	-342.995524	94.958000	875.076294	-326.153159	230.205476	949.081123	-105.861410	427.551597	813.487649	-258.889139	30.648660	776.141524	-251.898915	360.113949	460.297287	-223.753780	82.052354	468.552142	-349.309206	343.625814	409.774899	-232.383803	301.340789	67.829154	-210.029051	79.295605	434.649438	-314.316660	119.816337	192.275822	-51.067740	291.309446	36.981702	-354.766905	248.547316	39.647721	-158.423483	173.266456	217.575446	0.613965	133.736461	74.673995	-126.624227	
1656	6.624000	375.209719	1324.592113	-228.999287	79.214036	1340.728402	-238.495857	236.933276	1394.217134	-153.293848	336.072296	886.061907	-346.593022	95.251843	875.195086	-330.014646	230.060771	949.183702	-109.569326	427.632153	813.357055	-262.607425	30.670520	776.382565	-255.937397	359.854728	460.252315	-226.723880	81.902135	469.604731	-355.783612	343.363166	409.670711	-235.088378	301.236093	67.800924	-210.155964	79.144001	435.755998	-321.966946	120.017487	188.776940	-63.860543	291.285425	36.971673	-354.828537	248.525321	39.711997	-158.444464	173.143521	213.612914	-9.548102	134.040564	73.290028	-139.839455	
1657	6.628000	375.306189	1324.984312	-233.295351	79.187483	1340.519428	-242.310524	237.087339	1394.402742	-157.415733	336.374462	886.261821	-350.166380	95.573187	875.327110	-333.876342	229.968324	949.238718	-113.343440	427.704901	813.235343	-266.317964	30.684862	776.610494	-259.955257	359.582543	460.199207	-229.702428	81.769317	470.598161	-361.963660	343.123227	409.564048	-237.829447	301.120430	67.889109	-210.441187	79.241514	436.523050	-329.901785	120.208642	184.958637	-77.455819	291.257679	36.952134	-354.889750	248.498842	39.771203	-158.475772	172.994405	209.455967	-19.914173	134.290665	72.145723	-153.769165	
1658	6.632000	375.452429	1325.347781	-237.503618	79.148740	1340.322495	-246.053562	237.235785	1394.583106	-161.570996	336.672962	886.477709	-353.747219	95.876083	875.485539	-337.792128	229.831129	949.314535	-117.030732	427.763283	813.054204	-269.969314	30.775174	776.861966	-264.067590	359.310746	460.121125	-232.625023	81.656984	471.530110	-367.846727	342.838049	409.438968	-240.500972	301.020324	67.949101	-210.644320	78.978412	437.750101	-337.395996	120.380833	180.940822	-91.457985	291.231632	36.931895	-354.928166	248.474464	39.828669	-158.513367	172.839582	205.101565	-30.553980	134.471446	71.024247	-167.908907	
1659	6.636000	375.467092	1325.715899	-241.849646	79.137541	1340.130329	-249.828041	237.383932	1394.758463	-165.733621	336.910367	886.681080	-357.278526	96.198261	875.649750	-341.713965	229.687870	949.414968	-120.757930	427.860916	812.868536	-273.672998	30.771904	776.962757	-267.916858	359.048903	460.002989	-235.478908	81.568217	472.398162	-373.430163	342.521906	409.327269	-243.161574	300.942421	68.012878	-210.849524	78.882843	438.688427	-344.937027	120.525095	176.843420	-105.471455	291.212559	36.915399	-354.962945	248.455524	39.894890	-158.535242	172.732115	200.588763	-41.256726	134.615481	69.830872	-182.167798	
1660	6.640000	375.520289	1326.089740	-246.134102	79.136506	1339.956760	-253.584206	237.500533	1394.943237	-169.944257	337.136328	886.897326	-360.870838	96.514516	875.846744	-345.666111	229.616404	949.516773	-124.524191	427.955836	812.718272	-277.428180	30.756775	777.141511	-271.939993	358.796060	459.911704	-238.293678	81.506098	473.199993	-378.711402	342.196971	409.244001	-245.810613	300.866514	68.083473	-211.031809	78.844823	439.469457	-352.444440	120.632459	172.786355	-119.100638	291.204721	36.893949	-354.992092	248.418644	39.986368	-158.557713	172.451645	195.358783	-53.051248	134.758651	68.610601	-196.558326	
1661	6.644000	375.566483	1326.468587	-250.421375	79.107203	1339.801550	-257.347494	237.595230	1395.161033	-174.068227	337.338120	887.102604	-364.444345	96.825555	875.995636	-349.544436	229.554787	949.608564	-128.292471	428.055644	812.529683	-281.142861	30.711386	777.328730	-275.964439	358.518183	459.807873	-241.089240	81.473708	473.933190	-383.687764	341.832638	409.143597	-248.479977	300.793290	68.166412	-211.214453	78.736603	440.068722	-360.087752	120.693958	168.889537	-131.949946	291.187584	36.884688	-355.050504	248.400941	40.062167	-158.602715	172.024444	189.312130	-66.220090	134.819478	67.317113	-210.966557	
1662	6.648000	375.603199	1326.831698	-254.715383	79.065770	1339.675784	-261.016130	237.732247	1395.357966	-178.214714	337.538540	887.280524	-367.993087	97.171806	876.185417	-353.565067	229.492918	949.726343	-132.073879	428.210944	812.301934	-284.785628	30.677021	777.525663	-279.965580	358.257473	459.703326	-243.836969	81.475146	474.656641	-388.699204	341.491938	409.014255	-251.123428	300.733566	68.257518	-211.403966	78.620322	440.541863	-368.051380	120.700627	165.272892	-143.623799	291.192979	36.882214	-355.136991	248.381793	40.149093	-158.643961	172.359601	183.645830	-78.078024	134.812519	65.997720	-225.528896	
1663	6.652000	375.629485	1327.184081	-258.994848	79.071179	1339.556932	-264.698803	237.830922	1395.584345	-182.245746	337.741256	887.439370	-371.531516	97.522207	876.357079	-357.499003	229.474977	949.844718	-135.817975	428.366154	812.064111	-288.383156	30.701464	777.757227	-284.084499	357.988119	459.559321	-246.526361	81.510365	475.556433	-394.797146	341.176808	408.871502	-253.717959	300.652385	68.345070	-211.575806	78.679860	441.018820	-375.320464	120.643497	162.056342	-153.726593	291.171908	36.878441	-355.176896	248.362616	40.222179	-158.665359	173.043996	177.583709	-90.081014	134.813264	64.722486	-240.239918	
1664	6.656000	375.636935	1327.537894	-263.213545	79.037674	1339.428425	-268.332034	237.942815	1395.872712	-186.099857	337.896496	887.558818	-375.064522	97.899735	876.571953	-361.555517	229.496971	949.957669	-139.611587	428.475857	811.840296	-291.983873	30.655202	778.009295	-288.196683	357.703537	459.413171	-249.210641	81.554264	476.481199	-401.060551	340.898871	408.705086	-256.307214	300.581366	68.427891	-211.768433	78.946255	441.394895	-382.519871	120.538563	159.037963	-162.918419	291.168958	36.883365	-355.214536	248.333454	40.312573	-158.673808	173.138589	171.979547	-101.816490	134.732231	63.410833	-254.984707	
1665	6.660000	375.647545	1327.856898	-267.387033	78.902029	1339.316964	-271.951765	238.012061	1396.075726	-190.123111	338.082045	887.664497	-378.629655	98.244637	876.750231	-365.612537	229.514346	950.089574	-143.451273	428.566843	811.657071	-295.625329	30.556086	778.236985	-292.279840	357.424468	459.274530	-251.890600	81.607103	477.430344	-407.188088	340.601563	408.541203	-258.872092	300.498009	68.523236	-211.959064	78.994930	442.020595	-389.499307	120.442241	155.256703	-174.438387	291.161507	36.879305	-355.253279	248.306602	40.419556	-158.721581	173.038423	166.363060	-113.695927	134.539306	62.066153	-269.781679	
1666	6.664000	375.649005	1328.189611	-271.604836	78.791395	1339.195967	-275.543422	238.080576	1396.222711	-194.214553	338.258147	887.735784	-382.235974	98.600462	876.970053	-369.675905	229.521722	950.226426	-147.240132	428.687245	811.454654	-299.194396	30.474380	778.515041	-296.373248	357.120752	459.126413	-254.574835	81.683546	478.399575	-413.195252	340.277791	408.334881	-261.424690	300.406247	68.615869	-212.140888	78.994632	442.641109	-396.330774	120.268337	151.263058	-186.706156	291.142404	36.872134	-355.288118	248.261198	40.532809	-158.816814	172.872797	160.647213	-125.710160	134.346455	60.743429	-284.671843	
1667	6.668000	375.644654	1328.554273	-275.874734	78.741632	1339.101434	-279.193491	238.108948	1396.329403	-198.339492	338.461637	887.779176	-385.822982	98.926336	877.112746	-373.690069	229.570180	950.295269	-151.042253	428.787649	811.185360	-302.712023	30.351743	778.786838	-300.433725	356.811523	458.971053	-257.265568	81.751592	479.384661	-419.094026	339.977413	408.104450	-263.946533	300.304562	68.706371	-212.326542	79.029843	443.257689	-402.998358	120.096654	147.124112	-199.219555	291.142344	36.860012	-355.283737	248.215824	40.650975	-158.876121	172.701597	154.850513	-137.885928	134.079292	59.438620	-299.597502	
1668	6.672000	375.602722	1328.890324	-280.101538	78.675851	1338.978529	-282.813132	238.108650	1396.444321	-202.407390	338.632405	887.771726	-389.396757	99.276178	877.313733	-377.793252	229.656801	950.355530	-154.929653	428.879648	810.903788	-306.301445	30.195907	779.126585	-304.575324	356.506974	458.789051	-259.965837	81.831604	480.410159	-424.912155	339.670777	407.861233	-266.460568	300.203651	68.799719	-212.514728	79.036489	443.870366	-409.511715	119.880810	142.977744	-211.916819	291.133165	36.862455	-355.337739	248.186529	40.768787	-158.943415	172.551274	148.896948	-150.084257	133.739993	58.224969	-314.746678	
